<?xml version="1.0" encoding="utf-8"?>
<!-- Svg Vector Icons : http://www.onlinewebfonts.com/icon -->
<!DOCTYPE svg PUBLIC "-//W3C//DTD SVG 1.1//EN" "http://www.w3.org/Graphics/SVG/1.1/DTD/svg11.dtd">
<svg version="1.1" xmlns="http://www.w3.org/2000/svg" xmlns:xlink="http://www.w3.org/1999/xlink" x="0px" y="0px" viewBox="0 0 1000 1000" enable-background="new 0 0 1000 1000" xml:space="preserve">
<g><g><g>
<path d="M890,896.8C800.7,760.7,690.3,718,554.4,707.1v78.2c0,29.1-11.3,56.4-31.9,77c-41.2,41.2-113.1,40.9-153.7,0.3L26.2,524.7C15.8,514.4,10,500.5,10,485.9s5.8-28.5,16.2-38.8l342.3-337.7c41.1-41.1,112.9-41.2,154,0.1c20.5,20.6,31.8,47.9,31.8,77v92.8C805.9,330,990,551.3,990,812.6V867c0,24.1-15.8,45.3-38.9,52.2c-5.2,1.5-10.3,2.3-15.6,2.3C917.5,921.4,900.4,912.5,890,896.8z M501.3,595.4c120.2,3,252.5,21.5,367.9,115.5c-41.8-175.1-189.3-310.4-375.3-331c-27.4-3-48.3-2.8-48.3-2.8V186.7L142,485.9l303.6,299.4V594.8C445.6,594.8,485.7,595.4,501.3,595.4z"
fill="#ffffff"
/>
</g></g><g></g><g></g><g></g><g></g><g></g><g></g><g></g><g></g><g></g><g></g><g></g><g></g><g></g><g></g><g></g></g>
</svg>
